<?xml version="1.0" standalone="no"?>
<!DOCTYPE svg PUBLIC "-//W3C//DTD SVG 20010904//EN"
 "http://www.w3.org/TR/2001/REC-SVG-20010904/DTD/svg10.dtd">
<svg version="1.0" xmlns="http://www.w3.org/2000/svg"
 width="1063.000000pt" height="1063.000000pt" viewBox="0 0 1063.000000 1063.000000"
 preserveAspectRatio="xMidYMid meet">
<metadata>
Created by potrace 1.14, written by Peter Selinger 2001-2017
</metadata>
<g transform="translate(0.000000,1063.000000) scale(0.100000,-0.100000)"
fill="#000000" stroke="none">
<path d="M5217 9564 c-2 -1 -164 -11 -267 -15 -8 -1 -46 -5 -85 -11 -38 -5
-87 -11 -108 -13 -33 -4 -92 -13 -177 -29 -14 -2 -56 -12 -95 -20 -38 -9 -81
-19 -94 -22 -96 -21 -371 -105 -436 -134 -11 -5 -54 -22 -95 -38 -360 -141
-719 -358 -1055 -638 -459 -383 -859 -930 -1085 -1484 -23 -58 -46 -114 -51
-125 -74 -175 -184 -620 -213 -855 -3 -25 -9 -72 -13 -105 -10 -79 -10 -687 0
-790 5 -44 12 -105 17 -135 5 -30 12 -75 15 -100 13 -96 67 -331 107 -465 217
-734 614 -1347 1202 -1859 368 -321 861 -599 1331 -750 182 -59 449 -124 575
-140 19 -3 51 -7 70 -10 58 -10 162 -22 265 -31 65 -6 515 -6 580 0 53 5 89 9
260 30 35 4 187 31 280 50 140 28 490 134 580 175 11 5 70 30 130 55 514 216
1034 597 1407 1035 74 87 213 264 227 288 9 15 11 15 28 0 29 -25 80 -48 121
-54 42 -5 29 -20 123 149 93 165 269 524 269 546 0 9 -75 58 -112 73 -20 8
-22 20 -8 46 19 35 95 252 136 387 l42 140 38 9 c74 18 136 102 148 204 6 56
-59 193 -85 177 -19 -12 -26 6 -19 47 4 24 11 72 14 108 6 58 11 69 46 105 50
51 71 103 76 183 5 87 -30 182 -72 197 -16 6 -30 15 -30 20 -1 6 -5 74 -8 152
-4 79 -9 151 -11 161 -1 10 -6 48 -9 84 -4 37 -9 77 -12 90 -18 85 -24 150
-18 193 4 27 6 64 5 80 -2 34 -48 135 -61 135 -5 0 -18 33 -30 73 -145 484
-347 895 -622 1262 -40 53 -202 251 -238 290 -73 79 -274 278 -321 317 -24 20
-55 46 -69 57 -54 48 -68 59 -145 117 -247 187 -545 360 -815 473 -69 29 -134
57 -145 62 -129 58 -542 170 -760 205 -16 3 -41 7 -55 10 -14 2 -52 6 -85 10
-33 3 -71 8 -85 10 -68 11 -492 26 -503 18z"/>
</g>
</svg>
